<?xml version="1.0" standalone="no"?>
<!DOCTYPE svg PUBLIC "-//W3C//DTD SVG 20010904//EN"
 "http://www.w3.org/TR/2001/REC-SVG-20010904/DTD/svg10.dtd">
<svg version="1.0" xmlns="http://www.w3.org/2000/svg"
 width="1024.000000pt" height="1024.000000pt" viewBox="0 0 1024.000000 1024.000000"
 preserveAspectRatio="xMidYMid meet">
<metadata>
Created by potrace 1.14, written by Peter Selinger 2001-2017
</metadata>
<g transform="translate(0.000000,1024.000000) scale(0.100000,-0.100000)"
fill="#000000" stroke="none">
<path d="M5098 10192 c-9 -20 -31 -68 -48 -106 -120 -263 -147 -326 -142 -326
4 0 2 -4 -4 -8 -7 -4 -23 -34 -37 -67 -14 -33 -39 -90 -56 -127 -17 -36 -31
-71 -31 -77 0 -6 -4 -11 -10 -11 -5 0 -10 -6 -10 -13 0 -7 -8 -31 -19 -53 -10
-21 -29 -61 -41 -89 -12 -27 -34 -75 -48 -105 -14 -30 -27 -57 -27 -60 -1 -5
-10 -25 -91 -199 -24 -51 -44 -95 -44 -97 0 -2 -20 -47 -45 -100 -25 -53 -45
-97 -45 -99 0 -2 -18 -43 -41 -92 -22 -48 -50 -108 -61 -133 -36 -80 -70 -153
-104 -228 -19 -40 -34 -74 -34 -76 0 -4 -55 -124 -111 -242 -16 -34 -29 -64
-29 -67 0 -3 -20 -47 -44 -98 -87 -187 -100 -214 -101 -219 -5 -15 -63 -144
-113 -250 -14 -30 -27 -57 -27 -60 -1 -3 -10 -25 -22 -50 -11 -25 -36 -76 -53
-115 -18 -38 -34 -76 -36 -84 -1 -8 -6 -17 -11 -20 -4 -3 -9 -13 -11 -21 -2
-8 -23 -57 -48 -108 -24 -51 -44 -94 -44 -96 0 -5 -36 -84 -106 -235 -24 -51
-44 -95 -44 -97 0 -2 -20 -46 -44 -96 -23 -51 -46 -103 -50 -115 -4 -13 -11
-23 -15 -23 -4 0 -8 -6 -8 -14 0 -7 -10 -36 -23 -62 -50 -107 -83 -179 -86
-189 -1 -5 -24 -55 -50 -110 -26 -55 -48 -102 -49 -105 -1 -3 -7 -18 -13 -33
-7 -16 -12 -33 -12 -38 0 -5 -4 -9 -10 -9 -5 0 -10 -5 -10 -11 0 -12 -11 -38
-66 -156 -19 -39 -34 -74 -34 -76 0 -3 -20 -47 -44 -98 -83 -178 -106 -230
-106 -240 0 -5 -5 -9 -12 -9 -6 0 -9 -3 -6 -6 3 -3 -21 -63 -53 -134 -32 -71
-59 -134 -59 -139 0 -6 -4 -11 -10 -11 -5 0 -10 -5 -10 -11 0 -5 -12 -36 -26
-67 -29 -62 -41 -92 -44 -107 -1 -5 -8 -17 -15 -25 -7 -8 -14 -19 -15 -25 -4
-19 -9 -31 -103 -235 -13 -30 -35 -77 -47 -105 -12 -27 -40 -88 -62 -135 -23
-47 -41 -91 -41 -97 0 -7 -4 -13 -9 -13 -4 0 -8 -5 -8 -11 0 -5 -17 -47 -39
-92 -21 -45 -58 -127 -82 -182 -24 -55 -48 -103 -54 -107 -5 -4 -7 -8 -3 -8 4
0 -6 -26 -22 -59 -17 -32 -30 -61 -30 -64 0 -3 -16 -40 -36 -84 -20 -43 -49
-107 -66 -143 -16 -36 -38 -83 -48 -105 -10 -22 -32 -69 -48 -105 -16 -36 -40
-87 -52 -115 -13 -27 -22 -51 -22 -52 1 -2 -12 -29 -27 -60 -16 -32 -38 -79
-50 -105 -65 -146 -115 -257 -142 -312 -10 -22 -19 -46 -19 -53 0 -7 -4 -13
-10 -13 -5 0 -10 -6 -10 -14 0 -7 -20 -55 -44 -107 -24 -52 -55 -119 -68 -149
-14 -30 -35 -75 -46 -100 -11 -25 -54 -119 -95 -210 -41 -91 -86 -190 -100
-220 -60 -132 -68 -152 -65 -155 2 -2 22 10 46 26 23 16 45 29 47 29 3 0 32
18 64 40 32 22 64 40 70 40 6 0 11 5 11 10 0 6 7 10 15 10 8 0 15 5 15 10 0 6
5 10 11 10 6 0 30 14 54 30 24 17 48 30 54 30 6 0 11 4 11 9 0 5 6 11 13 13
10 2 206 123 374 231 16 9 36 20 46 23 9 4 17 10 17 15 0 5 4 9 8 9 10 0 365
220 372 230 3 4 13 18 23 31 9 13 44 62 77 109 33 47 68 96 78 109 9 13 24 34
32 47 47 71 155 219 162 222 4 2 8 10 8 18 0 8 4 14 9 14 5 0 11 8 15 17 6 17
28 50 76 112 11 14 71 99 133 188 62 89 121 172 130 185 9 13 49 68 87 123 39
55 77 109 85 120 8 11 46 65 84 120 39 55 77 109 85 120 8 11 51 72 94 135 44
63 87 123 95 132 9 9 21 27 28 39 6 13 16 28 21 33 10 12 73 100 139 196 25
36 73 103 106 150 32 47 100 144 150 215 51 72 95 135 100 140 5 6 41 57 81
115 40 58 79 114 88 125 15 20 173 243 197 279 6 10 18 25 25 32 7 8 10 14 5
14 -4 0 -3 4 3 8 6 4 33 39 59 77 60 86 131 186 145 202 5 7 10 15 10 18 0 4
6 12 13 19 6 8 18 22 25 32 17 25 268 384 286 409 24 32 135 189 146 205 5 8
77 110 159 226 82 116 166 236 187 265 20 30 41 56 46 57 4 2 8 8 8 12 0 5 47
76 105 157 57 81 109 155 115 163 22 33 229 326 237 335 4 6 28 39 53 75 24
36 48 67 52 68 4 2 8 9 8 15 1 7 14 28 30 47 17 19 30 40 30 47 0 7 4 13 8 13
5 0 20 17 33 38 21 32 23 42 15 72 -5 19 -12 37 -16 40 -6 6 -97 208 -112 250
-5 17 -14 30 -19 30 -5 0 -8 3 -7 8 1 4 -4 19 -10 35 -7 15 -17 39 -24 55 -6
15 -11 30 -10 34 1 3 -5 12 -13 18 -8 7 -15 18 -15 25 0 7 -15 45 -34 86 -53
116 -82 180 -173 384 -47 105 -95 213 -108 240 -13 28 -33 73 -45 100 -31 72
-52 119 -136 300 -15 33 -28 62 -29 65 -5 15 -28 68 -51 118 -14 31 -26 58
-26 59 1 1 -15 34 -34 73 -19 39 -34 72 -34 75 0 2 -18 43 -41 92 -39 84 -53
116 -60 138 -1 6 -20 46 -42 90 -22 44 -41 84 -42 90 -5 24 -48 115 -54 115
-3 0 -14 -17 -23 -38z"/>
<path d="M7386 5102 c-3 -5 -44 -32 -93 -62 -48 -29 -132 -82 -185 -117 -54
-35 -102 -63 -108 -63 -5 0 -10 -4 -10 -10 0 -5 -7 -10 -15 -10 -8 0 -15 -4
-15 -10 0 -5 -6 -10 -13 -10 -7 0 -23 -9 -35 -20 -12 -11 -23 -19 -24 -18 -2
1 -56 -31 -120 -72 -65 -41 -126 -80 -135 -85 -10 -6 -47 -29 -83 -52 -36 -23
-69 -43 -75 -44 -5 -2 -19 -11 -30 -22 -11 -10 -29 -23 -40 -28 -11 -5 -101
-61 -200 -124 -99 -64 -187 -119 -195 -122 -8 -4 -17 -10 -20 -14 -3 -3 -24
-17 -46 -30 -23 -13 -155 -96 -293 -184 -139 -88 -267 -169 -285 -180 -27 -16
-167 -105 -341 -215 -63 -40 -171 -105 -180 -109 -5 -2 -12 -7 -15 -11 -3 -4
-41 -29 -85 -56 -44 -26 -82 -50 -85 -53 -9 -11 -111 -71 -120 -71 -5 0 -10
-4 -12 -8 -2 -7 -73 -54 -147 -97 -9 -5 -31 -20 -48 -32 -17 -13 -33 -23 -36
-23 -2 0 -93 -56 -201 -125 -108 -69 -198 -125 -201 -125 -3 0 -11 -5 -18 -10
-23 -19 -172 -113 -176 -111 -2 2 -7 -1 -10 -6 -3 -5 -49 -36 -101 -68 -52
-32 -128 -80 -168 -107 -41 -26 -76 -48 -78 -48 -3 0 -32 -18 -64 -40 -32 -22
-64 -40 -69 -40 -6 0 -11 -4 -11 -10 0 -5 -5 -10 -10 -10 -6 0 -37 -18 -69
-40 -32 -22 -61 -40 -64 -40 -3 0 -34 -19 -69 -43 -35 -23 -117 -76 -183 -117
-66 -41 -122 -78 -123 -82 -2 -4 -9 -8 -17 -8 -7 0 -18 -7 -25 -15 -7 -8 -16
-12 -21 -9 -5 3 -9 0 -9 -5 0 -6 -7 -11 -15 -11 -8 0 -15 -4 -15 -10 0 -5 -7
-10 -15 -10 -8 0 -15 -4 -15 -10 0 -5 -5 -10 -11 -10 -6 0 -29 -13 -52 -29
-34 -23 -176 -113 -301 -191 -14 -8 -55 -34 -93 -58 -37 -24 -77 -48 -88 -55
-11 -7 -22 -15 -25 -18 -3 -3 -17 -12 -32 -20 -15 -8 -108 -66 -207 -129 -99
-63 -189 -119 -201 -125 -11 -5 -20 -13 -20 -17 0 -5 -4 -8 -10 -8 -5 0 -41
-20 -79 -45 -38 -25 -72 -45 -75 -45 -3 0 -26 -16 -52 -35 -25 -19 -52 -35
-60 -35 -8 0 -14 -4 -14 -8 0 -5 -10 -14 -22 -21 -13 -6 -35 -19 -50 -29 -15
-9 -59 -37 -98 -61 -60 -37 -74 -51 -94 -95 -25 -54 -102 -214 -217 -454 -38
-78 -69 -147 -69 -152 0 -6 -5 -10 -12 -10 -6 0 -9 -3 -6 -6 4 -3 -15 -49 -42
-102 -27 -53 -69 -141 -93 -194 -45 -97 -45 -97 -19 -85 15 6 30 15 33 20 3 5
9 8 13 8 8 -1 154 68 417 198 113 55 211 101 217 101 7 0 12 5 12 10 0 6 5 10
11 10 6 0 99 44 207 97 108 53 199 97 202 98 3 0 91 43 195 95 105 51 192 94
195 95 3 0 37 16 75 35 39 19 74 35 78 35 4 0 11 6 16 13 5 8 11 13 15 13 9
-2 141 60 266 124 25 12 48 21 52 19 3 -2 8 0 10 4 4 10 130 72 146 72 7 0 12
4 12 8 0 6 39 26 70 36 3 1 82 40 175 86 94 46 172 84 175 85 7 2 348 168 483
236 65 32 125 59 133 59 8 0 14 4 14 8 0 5 26 19 58 32 31 13 69 31 84 42 14
10 29 18 33 18 8 0 389 184 435 210 8 4 67 33 130 63 143 68 413 199 676 328
111 55 205 99 209 99 5 0 16 7 26 16 9 8 23 17 31 18 7 1 93 42 191 89 98 48
182 87 187 87 6 0 10 5 10 10 0 6 5 10 12 10 16 0 141 62 150 75 4 5 8 7 8 3
0 -4 33 9 73 29 39 21 74 38 77 38 3 1 75 36 161 78 134 65 159 81 172 109 9
18 17 38 18 43 1 6 12 30 24 55 13 25 29 61 38 80 22 53 117 268 144 327 12
28 23 57 23 62 0 6 4 11 8 11 5 0 9 6 9 13 0 6 12 37 26 67 45 97 87 191 87
195 0 3 15 37 33 77 30 64 46 101 52 118 3 9 37 85 71 158 19 41 34 80 34 88
0 8 5 14 10 14 6 0 10 6 10 13 0 7 8 31 19 53 10 21 51 113 91 204 39 91 80
183 90 205 10 22 37 83 60 135 23 52 50 114 61 137 24 54 37 85 37 97 0 5 6
13 14 17 10 7 9 9 -4 9 -9 0 -19 -4 -22 -8z"/>
<path d="M7517 5010 c-15 -33 -27 -64 -27 -70 0 -5 -4 -10 -10 -10 -5 0 -10
-6 -10 -14 0 -12 -77 -193 -150 -351 -10 -22 -37 -83 -60 -135 -23 -52 -50
-113 -60 -135 -68 -154 -104 -241 -102 -247 1 -5 -3 -8 -8 -8 -6 0 -10 -5 -10
-10 0 -6 -11 -33 -25 -62 -14 -28 -25 -55 -25 -59 0 -4 -14 -38 -32 -76 -47
-102 -159 -357 -161 -368 -1 -5 -4 -12 -7 -15 -3 -3 -14 -25 -25 -50 -10 -25
-36 -83 -57 -128 -21 -46 -38 -86 -38 -88 0 -3 -13 -33 -29 -67 -15 -34 -47
-106 -71 -159 l-42 -98 58 -86 c33 -47 76 -112 97 -143 20 -31 44 -64 52 -74
8 -9 15 -21 15 -26 0 -5 4 -11 8 -13 7 -3 161 -222 187 -266 6 -9 12 -19 15
-22 3 -3 46 -63 95 -135 138 -202 158 -230 167 -233 4 -2 8 -8 8 -13 0 -5 17
-33 37 -62 20 -28 61 -88 91 -132 30 -44 57 -82 61 -85 3 -3 12 -17 20 -32 8
-15 21 -36 30 -45 9 -10 28 -36 41 -58 14 -22 30 -47 37 -55 7 -8 39 -53 71
-100 49 -71 70 -91 123 -122 35 -21 72 -45 82 -53 9 -8 17 -12 17 -9 0 4 11
-1 24 -10 14 -8 40 -24 59 -35 19 -10 45 -25 58 -33 13 -7 31 -18 39 -24 8 -6
35 -23 60 -36 25 -14 107 -62 184 -107 76 -44 142 -81 147 -81 5 0 9 -4 9 -10
0 -5 4 -10 9 -10 5 0 71 -37 147 -82 77 -45 149 -86 161 -92 13 -6 23 -14 23
-18 0 -5 5 -8 11 -8 9 0 94 -48 179 -100 13 -8 126 -73 190 -111 14 -8 27 -17
30 -20 3 -3 20 -12 38 -20 17 -8 32 -17 32 -21 0 -5 5 -8 11 -8 6 0 59 -29
117 -64 301 -179 355 -210 349 -199 -7 12 -28 61 -123 283 -49 113 -91 207
-94 210 -3 3 -6 12 -8 20 -2 8 -12 33 -22 55 -10 22 -25 56 -33 75 -8 19 -24
55 -35 80 -37 85 -120 275 -170 390 -44 103 -63 145 -107 245 -7 17 -20 46
-28 65 -9 19 -32 72 -51 117 -20 45 -36 86 -36 92 0 6 -5 11 -12 11 -6 0 -9 3
-6 6 6 5 -46 129 -79 189 -10 17 -17 32 -16 35 1 7 -15 47 -35 90 -9 19 -17
37 -18 40 0 3 -8 21 -17 40 -46 97 -117 265 -117 277 0 7 -4 13 -10 13 -5 0
-10 5 -10 12 0 7 -43 111 -96 232 -53 122 -103 237 -111 256 -9 19 -24 53 -34
75 -20 46 -123 282 -146 335 -8 19 -19 44 -24 55 -87 197 -141 322 -142 333 0
6 -4 12 -9 12 -4 0 -8 6 -8 14 0 8 -13 41 -30 74 -16 34 -30 65 -30 71 0 6 -9
27 -19 48 -10 21 -26 54 -34 73 -9 19 -30 67 -47 105 -18 39 -33 75 -34 80 -1
6 -13 33 -26 60 -13 28 -24 52 -24 55 -1 3 -7 14 -13 25 -6 11 -11 23 -12 28
0 4 -10 28 -22 55 -12 26 -27 61 -34 77 -7 17 -22 51 -34 77 -22 49 -43 99
-46 108 -1 3 -8 21 -17 40 -8 19 -39 89 -68 155 -29 66 -60 138 -70 160 -10
22 -25 57 -33 78 -9 20 -18 37 -20 37 -2 0 -16 -27 -30 -60z"/>
<path d="M7660 1043 c-73 -28 -81 -31 -163 -67 -32 -14 -60 -26 -63 -26 -3 0
-24 -8 -47 -19 -23 -10 -100 -42 -172 -71 -182 -73 -365 -149 -399 -166 -16
-8 -33 -14 -38 -14 -5 0 -28 -9 -51 -19 -23 -11 -89 -38 -147 -61 -58 -23
-125 -51 -150 -62 -24 -11 -49 -21 -55 -23 -5 -1 -21 -7 -35 -13 -106 -45
-347 -144 -355 -145 -5 -1 -13 -5 -16 -10 -3 -4 -14 -9 -25 -11 -10 -3 -37
-12 -59 -21 -69 -30 -90 -38 -95 -40 -3 0 -14 -6 -25 -12 -11 -6 -22 -11 -25
-11 -9 -1 -42 -14 -260 -105 -118 -49 -219 -90 -225 -91 -5 -1 -17 -6 -25 -11
-8 -5 -19 -10 -25 -11 -5 -1 -26 -9 -45 -18 -32 -14 166 -15 2155 -16 l2189 0
-208 125 c-115 69 -210 125 -212 125 -3 0 -150 90 -194 118 -14 9 -27 17 -30
17 -3 0 -24 13 -47 28 -24 15 -47 27 -53 27 -5 0 -10 4 -10 9 0 5 -8 11 -17
14 -19 6 -75 38 -83 48 -3 3 -18 12 -35 21 -16 8 -67 38 -113 66 -46 29 -88
52 -93 52 -5 0 -9 4 -9 8 0 4 -12 13 -27 20 -16 6 -44 22 -64 34 -20 13 -87
54 -150 91 -63 37 -121 72 -129 77 -8 5 -51 31 -95 56 -44 26 -103 62 -132 80
-28 19 -56 34 -61 34 -6 0 -12 4 -14 9 -1 5 -32 -2 -68 -16z"/>
</g>
</svg>
